<svg xmlns="http://www.w3.org/2000/svg" viewBox="0 -18 100 158" overflow="visible" aria-hidden="true">
  <g fill="#A8431C">
    <path d="M48.6 36 L51.4 36 L53.5 138 L46.5 138 Z"/>
    <ellipse cx="50" cy="36" rx="3.5" ry="2"/>
    <g transform="translate(50 36) rotate(15)">
      <path d="M0 -45 C2.8 -32 2.4 -14 1.4 0 L-1.4 0 C-2 -14 -2.4 -32 0 -45 Z"/>
      <g transform="rotate(120)"><path d="M0 -45 C2.8 -32 2.4 -14 1.4 0 L-1.4 0 C-2 -14 -2.4 -32 0 -45 Z"/></g>
      <g transform="rotate(-120)"><path d="M0 -45 C2.8 -32 2.4 -14 1.4 0 L-1.4 0 C-2 -14 -2.4 -32 0 -45 Z"/></g>
      <circle cx="0" cy="0" r="2.6"/>
    </g>
  </g>
</svg>
